<?xml version="1.0" encoding="UTF-8"?>
<svg version="1.1" xmlns="http://www.w3.org/2000/svg" width="642" height="642">
<path d="M0 0 C1.57148499 0.08051107 3.139504 0.22979477 4.703125 0.40625 C12.56383031 1.19892617 20.43072958 1.37254612 28.32421875 1.60546875 C37.29870507 1.89822477 37.29870507 1.89822477 41.4453125 2.5 C48.55235639 3.49967211 55.78209121 3.40780538 62.94921875 3.60546875 C64.16480469 3.64285156 65.38039063 3.68023437 66.6328125 3.71875 C67.73512207 3.74904297 68.83743164 3.77933594 69.97314453 3.81054688 C73 4 73 4 75.49780273 4.5 C78.49103157 5.09812008 81.35132261 5.19788513 84.40234375 5.28125 C85.62244141 5.31863281 86.84253906 5.35601562 88.09960938 5.39453125 C89.36611328 5.42933594 90.63261719 5.46414062 91.9375 5.5 C94.44672075 5.56916688 96.9558448 5.64195742 99.46484375 5.71875 C100.574646 5.74904297 101.68444824 5.77933594 102.82788086 5.81054688 C105.95118392 5.99708449 108.91739786 6.48035483 112 7 C113.99545856 7.12854689 115.99349705 7.22111977 117.9921875 7.28125 C119.10980469 7.31863281 120.22742188 7.35601562 121.37890625 7.39453125 C122.53261719 7.42933594 123.68632812 7.46414062 124.875 7.5 C137.61544586 7.88694268 137.61544586 7.88694268 143.79638672 8.76367188 C150.45686186 9.47797942 157.21836162 9.41901008 163.91015625 9.60546875 C165.72193359 9.66154297 165.72193359 9.66154297 167.5703125 9.71875 C168.66102051 9.74904297 169.75172852 9.77933594 170.87548828 9.81054688 C174 10 174 10 176.96386719 10.5 C180.33877948 11.05579128 183.58895055 11.19494061 187.0078125 11.28125 C188.32394531 11.31863281 189.64007813 11.35601562 190.99609375 11.39453125 C193.06751918 11.44820022 195.13897867 11.5003502 197.21044922 11.55224609 C199.22633268 11.60415521 201.24207695 11.66138363 203.2578125 11.71875 C204.4555127 11.74904297 205.65321289 11.77933594 206.88720703 11.81054688 C209.47385022 11.96797708 211.51863022 12.37105875 214 13 C216.09926632 13.13577518 218.20181244 13.22406202 220.3046875 13.28125 C221.52800781 13.31863281 222.75132812 13.35601562 224.01171875 13.39453125 C225.92404297 13.44673828 225.92404297 13.44673828 227.875 13.5 C230.39333484 13.56917095 232.91157341 13.64196208 235.4296875 13.71875 C236.54585449 13.74904297 237.66202148 13.77933594 238.81201172 13.81054688 C241.9411703 13.99650392 244.91106523 14.48365814 248 15 C250.07114164 15.11868002 252.14474676 15.19894288 254.21875 15.24609375 C255.39276367 15.27775635 256.56677734 15.30941895 257.77636719 15.34204102 C259.61956543 15.38929321 259.61956543 15.38929321 261.5 15.4375 C271.13346862 15.72452033 280.51856829 16.16430927 290 18 C290 18.66 290 19.32 290 20 C290.66 20 291.32 20 292 20 C292 20.66 292 21.32 292 22 C292.66 22 293.32 22 294 22 C294 22.66 294 23.32 294 24 C294.66 24 295.32 24 296 24 C296 24.66 296 25.32 296 26 C296.66 26 297.32 26 298 26 C298 26.66 298 27.32 298 28 C298.66 28 299.32 28 300 28 C300 28.66 300 29.32 300 30 C300.66 30 301.32 30 302 30 C302 30.66 302 31.32 302 32 C302.66 32 303.32 32 304 32 C304 32.66 304 33.32 304 34 C304.66 34 305.32 34 306 34 C306 34.66 306 35.32 306 36 C306.66 36 307.32 36 308 36 C308 36.66 308 37.32 308 38 C308.66 38 309.32 38 310 38 C311.7265625 39.6796875 311.7265625 39.6796875 313.625 41.875 C314.57246094 42.95394531 314.57246094 42.95394531 315.5390625 44.0546875 C317 46 317 46 317 48 C317.66 48 318.32 48 319 48 C319 48.66 319 49.32 319 50 C319.66 50 320.32 50 321 50 C321 50.66 321 51.32 321 52 C321.66 52 322.32 52 323 52 C323 52.66 323 53.32 323 54 C323.66 54 324.32 54 325 54 C325 54.66 325 55.32 325 56 C325.66 56 326.32 56 327 56 C327 56.66 327 57.32 327 58 C327.66 58 328.32 58 329 58 C329 58.66 329 59.32 329 60 C329.66 60 330.32 60 331 60 C332.65625 61.609375 332.65625 61.609375 334.5 63.75 C335.1084375 64.44609375 335.716875 65.1421875 336.34375 65.859375 C337.87976963 67.84460792 338.9723966 69.71872045 340 72 C340.66 72 341.32 72 342 72 C342 72.66 342 73.32 342 74 C342.66 74 343.32 74 344 74 C344 74.66 344 75.32 344 76 C344.66 76 345.32 76 346 76 C346 76.66 346 77.32 346 78 C346.66 78 347.32 78 348 78 C348 78.66 348 79.32 348 80 C348.66 80 349.32 80 350 80 C350 80.66 350 81.32 350 82 C350.66 82 351.32 82 352 82 C352 82.66 352 83.32 352 84 C352.66 84 353.32 84 354 84 C354 84.66 354 85.32 354 86 C354.66 86 355.32 86 356 86 C356 86.66 356 87.32 356 88 C356.66 88 357.32 88 358 88 C359.65625 89.609375 359.65625 89.609375 361.5 91.75 C362.1084375 92.44609375 362.716875 93.1421875 363.34375 93.859375 C364.87976963 95.84460792 365.9723966 97.71872045 367 100 C367.66 100 368.32 100 369 100 C369 100.66 369 101.32 369 102 C369.66 102 370.32 102 371 102 C371 102.66 371 103.32 371 104 C371.66 104 372.32 104 373 104 C373 104.66 373 105.32 373 106 C373.66 106 374.32 106 375 106 C375 106.66 375 107.32 375 108 C375.66 108 376.32 108 377 108 C377 108.66 377 109.32 377 110 C377.66 110 378.32 110 379 110 C380.65625 111.609375 380.65625 111.609375 382.5 113.75 C383.1084375 114.44609375 383.716875 115.1421875 384.34375 115.859375 C385.87976963 117.84460792 386.9723966 119.71872045 388 122 C388.66 122 389.32 122 390 122 C390 122.66 390 123.32 390 124 C390.66 124 391.32 124 392 124 C392 124.66 392 125.32 392 126 C392.66 126 393.32 126 394 126 C394 126.66 394 127.32 394 128 C394.66 128 395.32 128 396 128 C396 128.66 396 129.32 396 130 C396.66 130 397.32 130 398 130 C398 130.66 398 131.32 398 132 C398.66 132 399.32 132 400 132 C400 132.66 400 133.32 400 134 C400.66 134 401.32 134 402 134 C402 134.66 402 135.32 402 136 C402.66 136 403.32 136 404 136 C404 136.66 404 137.32 404 138 C404.66 138 405.32 138 406 138 C406 138.66 406 139.32 406 140 C406.66 140 407.32 140 408 140 C408 140.66 408 141.32 408 142 C408.66 142 409.32 142 410 142 C411.7265625 143.6796875 411.7265625 143.6796875 413.625 145.875 C414.57246094 146.95394531 414.57246094 146.95394531 415.5390625 148.0546875 C417 150 417 150 417 152 C417.66 152 418.32 152 419 152 C419 152.66 419 153.32 419 154 C419.66 154 420.32 154 421 154 C421 154.66 421 155.32 421 156 C421.66 156 422.32 156 423 156 C423 156.66 423 157.32 423 158 C423.66 158 424.32 158 425 158 C425 158.66 425 159.32 425 160 C425.66 160 426.32 160 427 160 C428.5859375 161.609375 428.5859375 161.609375 430.375 163.75 C432.33757727 166.06903702 434.2588295 168.25219284 436.4375 170.375 C438 172 438 172 438 174 C438.66 174 439.32 174 440 174 C440 174.66 440 175.32 440 176 C440.66 176 441.32 176 442 176 C442 176.66 442 177.32 442 178 C442.66 178 443.32 178 444 178 C444 178.66 444 179.32 444 180 C444.66 180 445.32 180 446 180 C446 180.66 446 181.32 446 182 C446.66 182 447.32 182 448 182 C448 182.66 448 183.32 448 184 C448.66 184 449.32 184 450 184 C450 184.66 450 185.32 450 186 C450.66 186 451.32 186 452 186 C452 186.66 452 187.32 452 188 C452.66 188 453.32 188 454 188 C454 188.66 454 189.32 454 190 C454.66 190 455.32 190 456 190 C456 190.66 456 191.32 456 192 C456.66 192 457.32 192 458 192 C463 197.47619048 463 197.47619048 463 200 C463.66 200 464.32 200 465 200 C465 200.66 465 201.32 465 202 C465.66 202 466.32 202 467 202 C467 202.66 467 203.32 467 204 C467.66 204 468.32 204 469 204 C469 204.66 469 205.32 469 206 C469.66 206 470.32 206 471 206 C471 206.66 471 207.32 471 208 C471.66 208 472.32 208 473 208 C474.65625 209.609375 474.65625 209.609375 476.5 211.75 C477.1084375 212.44609375 477.716875 213.1421875 478.34375 213.859375 C479.87976963 215.84460792 480.9723966 217.71872045 482 220 C482.66 220 483.32 220 484 220 C484 220.66 484 221.32 484 222 C484.66 222 485.32 222 486 222 C486 222.66 486 223.32 486 224 C486.66 224 487.32 224 488 224 C488 224.66 488 225.32 488 226 C488.66 226 489.32 226 490 226 C490 226.66 490 227.32 490 228 C490.66 228 491.32 228 492 228 C492 228.66 492 229.32 492 230 C492.66 230 493.32 230 494 230 C494 230.66 494 231.32 494 232 C494.66 232 495.32 232 496 232 C496 232.66 496 233.32 496 234 C496.66 234 497.32 234 498 234 C498 234.66 498 235.32 498 236 C498.66 236 499.32 236 500 236 C500 236.66 500 237.32 500 238 C500.66 238 501.32 238 502 238 C502 238.66 502 239.32 502 240 C502.66 240 503.32 240 504 240 C505.7265625 241.6796875 505.7265625 241.6796875 507.625 243.875 C508.57246094 244.95394531 508.57246094 244.95394531 509.5390625 246.0546875 C511 248 511 248 511 250 C511.66 250 512.32 250 513 250 C513 250.66 513 251.32 513 252 C513.66 252 514.32 252 515 252 C515 252.66 515 253.32 515 254 C515.66 254 516.32 254 517 254 C517 254.66 517 255.32 517 256 C517.66 256 518.32 256 519 256 C519 256.66 519 257.32 519 258 C519.66 258 520.32 258 521 258 C521 258.66 521 259.32 521 260 C521.66 260 522.32 260 523 260 C528 265.47619048 528 265.47619048 528 268 C527.34 268 526.68 268 526 268 C526 268.66 526 269.32 526 270 C525.34 270 524.68 270 524 270 C524 270.66 524 271.32 524 272 C523.01 272 522.02 272 521 272 C521 272.66 521 273.32 521 274 C519.35 274.66 517.7 275.32 516 276 C516 276.66 516 277.32 516 278 C514.35 278.66 512.7 279.32 511 280 C511 280.66 511 281.32 511 282 C509.35 282.66 507.7 283.32 506 284 C506 284.66 506 285.32 506 286 C504.35 286.66 502.7 287.32 501 288 C501 288.66 501 289.32 501 290 C500.01 290 499.02 290 498 290 C498 290.66 498 291.32 498 292 C497.34 292 496.68 292 496 292 C496 292.66 496 293.32 496 294 C495.01 294 494.02 294 493 294 C493 294.66 493 295.32 493 296 C491.35 296.66 489.7 297.32 488 298 C488 298.66 488 299.32 488 300 C486.35 300.66 484.7 301.32 483 302 C483 302.66 483 303.32 483 304 C482.01 304 481.02 304 480 304 C480 304.66 480 305.32 480 306 C479.34 306 478.68 306 478 306 C478 306.66 478 307.32 478 308 C477.01 308 476.02 308 475 308 C475 308.66 475 309.32 475 310 C473.35 310.66 471.7 311.32 470 312 C470 312.66 470 313.32 470 314 C468.35 314.66 466.7 315.32 465 316 C465 316.66 465 317.32 465 318 C464.01 318 463.02 318 462 318 C462 318.66 462 319.32 462 320 C461.34 320 460.68 320 460 320 C460 320.66 460 321.32 460 322 C459.01 322 458.02 322 457 322 C457 322.66 457 323.32 457 324 C455.35 324.66 453.7 325.32 452 326 C452 326.66 452 327.32 452 328 C450.35 328.66 448.7 329.32 447 330 C447 330.66 447 331.32 447 332 C445.35 332.66 443.7 333.32 442 334 C442 334.66 442 335.32 442 336 C440.35 336.66 438.7 337.32 437 338 C437 338.66 437 339.32 437 340 C436.01 340 435.02 340 434 340 C434 340.66 434 341.32 434 342 C433.34 342 432.68 342 432 342 C432 342.66 432 343.32 432 344 C431.01 344 430.02 344 429 344 C429 344.66 429 345.32 429 346 C427.35 346.66 425.7 347.32 424 348 C424 348.66 424 349.32 424 350 C422.35 350.66 420.7 351.32 419 352 C419 352.66 419 353.32 419 354 C417.35 354.66 415.7 355.32 414 356 C414 356.66 414 357.32 414 358 C413.01 358 412.02 358 411 358 C411 358.66 411 359.32 411 360 C409.35 360.66 407.7 361.32 406 362 C406 362.66 406 363.32 406 364 C400.58823529 368 400.58823529 368 398 368 C398 368.66 398 369.32 398 370 C397.34 370 396.68 370 396 370 C396 369.34 396 368.68 396 368 C395.34 368 394.68 368 394 368 C394 367.34 394 366.68 394 366 C393.34 366 392.68 366 392 366 C392 365.34 392 364.68 392 364 C391.401875 363.71125 390.80375 363.4225 390.1875 363.125 C388 362 388 362 385 360 C385 359.34 385 358.68 385 358 C384.34 358 383.68 358 383 358 C383 357.34 383 356.68 383 356 C382.34 356 381.68 356 381 356 C381 355.34 381 354.68 381 354 C380.34 354 379.68 354 379 354 C379 353.34 379 352.68 379 352 C377.35 351.34 375.7 350.68 374 350 C374 349.34 374 348.68 374 348 C373.34 348 372.68 348 372 348 C372 347.34 372 346.68 372 346 C371.34 346 370.68 346 370 346 C370 345.34 370 344.68 370 344 C369.34 344 368.68 344 368 344 C368 343.34 368 342.68 368 342 C367.1646875 341.62875 367.1646875 341.62875 366.3125 341.25 C363.57589087 339.77075182 361.32349131 338.06532561 359 336 C359 335.34 359 334.68 359 334 C358.34 334 357.68 334 357 334 C357 333.34 357 332.68 357 332 C356.34 332 355.68 332 355 332 C355 331.34 355 330.68 355 330 C354.34 330 353.68 330 353 330 C353 329.34 353 328.68 353 328 C352.401875 327.71125 351.80375 327.4225 351.1875 327.125 C349 326 349 326 346 324 C346 323.34 346 322.68 346 322 C345.34 322 344.68 322 344 322 C344 321.34 344 320.68 344 320 C343.34 320 342.68 320 342 320 C342 319.34 342 318.68 342 318 C341.34 318 340.68 318 340 318 C340 317.34 340 316.68 340 316 C339.1646875 315.62875 339.1646875 315.62875 338.3125 315.25 C335.57589087 313.77075182 333.32349131 312.06532561 331 310 C331 309.34 331 308.68 331 308 C330.34 308 329.68 308 329 308 C329 307.34 329 306.68 329 306 C328.34 306 327.68 306 327 306 C327 305.34 327 304.68 327 304 C325.35 303.34 323.7 302.68 322 302 C322 301.34 322 300.68 322 300 C321.34 300 320.68 300 320 300 C320 299.34 320 298.68 320 298 C319.34 298 318.68 298 318 298 C318 297.34 318 296.68 318 296 C317.34 296 316.68 296 316 296 C316 295.34 316 294.68 316 294 C315.34 294 314.68 294 314 294 C314 293.34 314 292.68 314 292 C313.1646875 291.62875 313.1646875 291.62875 312.3125 291.25 C309.57589087 289.77075182 307.32349131 288.06532561 305 286 C305 285.34 305 284.68 305 284 C304.34 284 303.68 284 303 284 C303 283.34 303 282.68 303 282 C302.34 282 301.68 282 301 282 C301 281.34 301 280.68 301 280 C300.34 280 299.68 280 299 280 C299 279.34 299 278.68 299 278 C297.35 277.34 295.7 276.68 294 276 C294 275.34 294 274.68 294 274 C293.34 274 292.68 274 292 274 C292 273.34 292 272.68 292 272 C291.34 272 290.68 272 290 272 C290 271.34 290 270.68 290 270 C289.34 270 288.68 270 288 270 C288 269.34 288 268.68 288 268 C287.1646875 267.62875 287.1646875 267.62875 286.3125 267.25 C283.57589087 265.77075182 281.32349131 264.06532561 279 262 C279 261.34 279 260.68 279 260 C278.34 260 277.68 260 277 260 C277 259.34 277 258.68 277 258 C276.34 258 275.68 258 275 258 C275 257.34 275 256.68 275 256 C274.401875 255.71125 273.80375 255.4225 273.1875 255.125 C271 254 271 254 268 252 C268 251.34 268 250.68 268 250 C267.34 250 266.68 250 266 250 C266 249.34 266 248.68 266 248 C265.34 248 264.68 248 264 248 C264 247.34 264 246.68 264 246 C263.34 246 262.68 246 262 246 C262 245.34 262 244.68 262 244 C261.34 244 260.68 244 260 244 C260 243.34 260 242.68 260 242 C259.401875 241.71125 258.80375 241.4225 258.1875 241.125 C256 240 256 240 253 238 C253 237.34 253 236.68 253 236 C252.34 236 251.68 236 251 236 C251 235.34 251 234.68 251 234 C250.34 234 249.68 234 249 234 C249 233.34 249 232.68 249 232 C248.443125 231.7525 247.88625 231.505 247.3125 231.25 C244.57589087 229.77075182 242.32349131 228.06532561 240 226 C240 225.34 240 224.68 240 224 C239.34 224 238.68 224 238 224 C238 223.34 238 222.68 238 222 C237.34 222 236.68 222 236 222 C236 221.34 236 220.68 236 220 C235.443125 219.7525 234.88625 219.505 234.3125 219.25 C231.57589087 217.77075182 229.32349131 216.06532561 227 214 C227 213.34 227 212.68 227 212 C226.34 212 225.68 212 225 212 C225 211.34 225 210.68 225 210 C224.34 210 223.68 210 223 210 C223 209.34 223 208.68 223 208 C221.35 207.34 219.7 206.68 218 206 C218 205.34 218 204.68 218 204 C217.34 204 216.68 204 216 204 C216 203.34 216 202.68 216 202 C215.34 202 214.68 202 214 202 C214 201.34 214 200.68 214 200 C213.34 200 212.68 200 212 200 C212 199.34 212 198.68 212 198 C211.34 198 210.68 198 210 198 C210 197.34 210 196.68 210 196 C209.34 196 208.68 196 208 196 C208 195.34 208 194.68 208 194 C207.401875 193.71125 206.80375 193.4225 206.1875 193.125 C204 192 204 192 201 190 C201 189.34 201 188.68 201 188 C200.34 188 199.68 188 199 188 C199 187.34 199 186.68 199 186 C198.34 186 197.68 186 197 186 C197 185.34 197 184.68 197 184 C196.443125 183.7525 195.88625 183.505 195.3125 183.25 C192.57589087 181.77075182 190.32349131 180.06532561 188 178 C188 177.34 188 176.68 188 176 C187.34 176 186.68 176 186 176 C186 175.34 186 174.68 186 174 C185.34 174 184.68 174 184 174 C184 173.34 184 172.68 184 172 C183.34 172 182.68 172 182 172 C182 171.34 182 170.68 182 170 C181.401875 169.71125 180.80375 169.4225 180.1875 169.125 C178 168 178 168 175 166 C175 165.34 175 164.68 175 164 C174.34 164 173.68 164 173 164 C173 163.34 173 162.68 173 162 C172.34 162 171.68 162 171 162 C171 161.34 171 160.68 171 160 C170.401875 159.71125 169.80375 159.4225 169.1875 159.125 C167 158 167 158 164 156 C164 155.34 164 154.68 164 154 C163.34 154 162.68 154 162 154 C162 153.34 162 152.68 162 152 C161.34 152 160.68 152 160 152 C160 151.34 160 150.68 160 150 C159.34 150 158.68 150 158 150 C158 149.34 158 148.68 158 148 C157.443125 147.7525 156.88625 147.505 156.3125 147.25 C153.57589087 145.77075182 151.32349131 144.06532561 149 142 C149 141.34 149 140.68 149 140 C148.34 140 147.68 140 147 140 C147 139.34 147 138.68 147 138 C146.34 138 145.68 138 145 138 C145 137.34 145 136.68 145 136 C144.401875 135.71125 143.80375 135.4225 143.1875 135.125 C141 134 141 134 138 132 C138 131.34 138 130.68 138 130 C137.34 130 136.68 130 136 130 C136 129.34 136 128.68 136 128 C135.34 128 134.68 128 134 128 C134 127.34 134 126.68 134 126 C133.34 126 132.68 126 132 126 C132 125.34 132 124.68 132 124 C131.34 124 130.68 124 130 124 C130 123.34 130 122.68 130 122 C129.401875 121.71125 128.80375 121.4225 128.1875 121.125 C126 120 126 120 123 118 C123 117.34 123 116.68 123 116 C122.34 116 121.68 116 121 116 C121 115.34 121 114.68 121 114 C120.34 114 119.68 114 119 114 C119 113.34 119 112.68 119 112 C117.35 111.34 115.7 110.68 114 110 C114 109.34 114 108.68 114 108 C113.34 108 112.68 108 112 108 C112 107.34 112 106.68 112 106 C111.34 106 110.68 106 110 106 C110 105.34 110 104.68 110 104 C109.34 104 108.68 104 108 104 C108 103.34 108 102.68 108 102 C107.34 102 106.68 102 106 102 C106 101.34 106 100.68 106 100 C105.443125 99.7525 104.88625 99.505 104.3125 99.25 C101.57589087 97.77075182 99.32349131 96.06532561 97 94 C97 93.34 97 92.68 97 92 C96.34 92 95.68 92 95 92 C95 91.34 95 90.68 95 90 C94.34 90 93.68 90 93 90 C93 89.34 93 88.68 93 88 C92.2575 87.7525 91.515 87.505 90.75 87.25 C87.76976913 85.89534961 86.10080748 84.4898459 84 82 C84 81.34 84 80.68 84 80 C83.34 80 82.68 80 82 80 C82 79.34 82 78.68 82 78 C81.34 78 80.68 78 80 78 C80 77.34 80 76.68 80 76 C79.41734375 75.731875 78.8346875 75.46375 78.234375 75.1875 C75.97213399 73.98519009 74.19423682 72.66174087 72.25 71 C71.63640625 70.484375 71.0228125 69.96875 70.390625 69.4375 C69 68 69 68 69 66 C68.34 66 67.68 66 67 66 C67 65.34 67 64.68 67 64 C66.401875 63.71125 65.80375 63.4225 65.1875 63.125 C63 62 63 62 60 60 C60 59.34 60 58.68 60 58 C59.34 58 58.68 58 58 58 C58 57.34 58 56.68 58 56 C57.34 56 56.68 56 56 56 C56 55.34 56 54.68 56 54 C55.34 54 54.68 54 54 54 C54 53.34 54 52.68 54 52 C53.34 52 52.68 52 52 52 C52 51.34 52 50.68 52 50 C51.401875 49.71125 50.80375 49.4225 50.1875 49.125 C48 48 48 48 45 46 C45 45.34 45 44.68 45 44 C44.34 44 43.68 44 43 44 C43 43.34 43 42.68 43 42 C42.34 42 41.68 42 41 42 C41 41.34 41 40.68 41 40 C40.2575 39.7525 39.515 39.505 38.75 39.25 C35.76976913 37.89534961 34.10080748 36.4898459 32 34 C32 33.34 32 32.68 32 32 C31.34 32 30.68 32 30 32 C30 31.34 30 30.68 30 30 C29.34 30 28.68 30 28 30 C28 29.34 28 28.68 28 28 C27.34 28 26.68 28 26 28 C26 27.34 26 26.68 26 26 C25.1028125 25.566875 25.1028125 25.566875 24.1875 25.125 C22 24 22 24 19 22 C19 21.34 19 20.68 19 20 C18.34 20 17.68 20 17 20 C17 19.34 17 18.68 17 18 C16.34 18 15.68 18 15 18 C15 17.34 15 16.68 15 16 C14.1028125 15.566875 14.1028125 15.566875 13.1875 15.125 C11 14 11 14 8 12 C8 11.34 8 10.68 8 10 C7.34 10 6.68 10 6 10 C6 9.34 6 8.68 6 8 C5.34 8 4.68 8 4 8 C4 7.34 4 6.68 4 6 C3.34 6 2.68 6 2 6 C2 5.34 2 4.68 2 4 C1.34 4 0.68 4 0 4 C-0.33 3.01 -0.66 2.02 -1 1 C-0.67 0.67 -0.34 0.34 0 0 Z " fill="#1952BA" transform="translate(14,128)"/>
<path d="M0 0 C0.09542899 9.71946275 -0.13872184 19.33386151 -0.77856445 29.03637695 C-0.90300934 31.01133148 -0.90300934 31.01133148 -1.02996826 33.02618408 C-1.25531731 36.60112948 -1.48641332 40.17568192 -1.71856713 43.75019097 C-1.96496427 47.56086992 -2.20570277 51.37190668 -2.44706726 55.1829071 C-2.90726683 62.43647998 -3.37211455 69.68974666 -3.83881778 76.9429037 C-4.66209454 89.74110614 -5.47582512 102.53991951 -6.29068458 115.33866012 C-6.58804728 120.00831173 -6.88619046 124.67791274 -7.1849016 129.34747827 C-8.54355934 150.59302456 -9.85619908 171.84072825 -11.08406067 193.09431458 C-11.13961687 194.04314074 -11.19517307 194.9919669 -11.2524128 195.96954536 C-11.35300431 197.68777567 -11.45203456 199.40609866 -11.54894829 201.12454033 C-11.88103377 206.7671726 -12.40149241 212.37960737 -13 218 C-16.76690636 216.26142784 -19.21232537 214.09741625 -22 211 C-22 210.34 -22 209.68 -22 209 C-22.66 209 -23.32 209 -24 209 C-24 208.34 -24 207.68 -24 207 C-24.66 207 -25.32 207 -26 207 C-27.234375 205.77734375 -27.234375 205.77734375 -28.75 203.9375 C-32.45991283 199.56734844 -36.33372529 195.37179916 -40.25 191.1875 C-41.17184082 190.20027954 -41.17184082 190.20027954 -42.11230469 189.19311523 C-45.32749812 185.73081992 -45.32749812 185.73081992 -48.69433594 182.41918945 C-50 181 -50 181 -50 179 C-50.66 179 -51.32 179 -52 179 C-52 178.34 -52 177.68 -52 177 C-52.66 177 -53.32 177 -54 177 C-55.515625 175.4609375 -55.515625 175.4609375 -57.25 173.375 C-59.54660073 170.65952241 -61.87150775 168.08737736 -64.4375 165.625 C-67 163 -67 163 -67 161 C-67.66 161 -68.32 161 -69 161 C-70.5859375 159.390625 -70.5859375 159.390625 -72.375 157.25 C-74.33757727 154.93096298 -76.2588295 152.74780716 -78.4375 150.625 C-80 149 -80 149 -80 147 C-80.66 147 -81.32 147 -82 147 C-82 146.34 -82 145.68 -82 145 C-82.66 145 -83.32 145 -84 145 C-85.65625 143.390625 -85.65625 143.390625 -87.5 141.25 C-88.1084375 140.55390625 -88.716875 139.8578125 -89.34375 139.140625 C-90.87976963 137.15539208 -91.9723966 135.28127955 -93 133 C-93.66 133 -94.32 133 -95 133 C-95 132.34 -95 131.68 -95 131 C-95.66 131 -96.32 131 -97 131 C-98.515625 129.4609375 -98.515625 129.4609375 -100.25 127.375 C-102.54660073 124.65952241 -104.87150775 122.08737736 -107.4375 119.625 C-110 117 -110 117 -110 115 C-110.66 115 -111.32 115 -112 115 C-112 114.34 -112 113.68 -112 113 C-112.66 113 -113.32 113 -114 113 C-115.7143618 111.04072937 -117.38405168 109.04119788 -119 107 C-117.69985934 104.10820032 -116.35656066 102.13291606 -114.03125 99.984375 C-113.17466797 99.19160156 -113.17466797 99.19160156 -112.30078125 98.3828125 C-111.70652344 97.84398437 -111.11226563 97.30515625 -110.5 96.75 C-109.90574219 96.19570313 -109.31148438 95.64140625 -108.69921875 95.0703125 C-104.25796644 91 -104.25796644 91 -102 91 C-102 90.34 -102 89.68 -102 89 C-100.5390625 87.4921875 -100.5390625 87.4921875 -98.625 85.875 C-97.99851562 85.33617187 -97.37203125 84.79734375 -96.7265625 84.2421875 C-95 83 -95 83 -93 83 C-93 82.34 -93 81.68 -93 81 C-91.35546875 79.30859375 -91.35546875 79.30859375 -89.1875 77.4375 C-88.12595703 76.50744141 -88.12595703 76.50744141 -87.04296875 75.55859375 C-85 74 -85 74 -82 73 C-82 72.34 -82 71.68 -82 71 C-80.5390625 69.4921875 -80.5390625 69.4921875 -78.625 67.875 C-77.99851562 67.33617187 -77.37203125 66.79734375 -76.7265625 66.2421875 C-75 65 -75 65 -73 65 C-73 64.34 -73 63.68 -73 63 C-71.5390625 61.4921875 -71.5390625 61.4921875 -69.625 59.875 C-68.99851562 59.33617187 -68.37203125 58.79734375 -67.7265625 58.2421875 C-66 57 -66 57 -64 57 C-64 56.34 -64 55.68 -64 55 C-62.5390625 53.4921875 -62.5390625 53.4921875 -60.625 51.875 C-59.99851562 51.33617187 -59.37203125 50.79734375 -58.7265625 50.2421875 C-57 49 -57 49 -55 49 C-55 48.34 -55 47.68 -55 47 C-53.5390625 45.4921875 -53.5390625 45.4921875 -51.625 43.875 C-50.99851562 43.33617187 -50.37203125 42.79734375 -49.7265625 42.2421875 C-48 41 -48 41 -46 41 C-46 40.34 -46 39.68 -46 39 C-44.5390625 37.4921875 -44.5390625 37.4921875 -42.625 35.875 C-41.99851562 35.33617187 -41.37203125 34.79734375 -40.7265625 34.2421875 C-39 33 -39 33 -37 33 C-37 32.34 -37 31.68 -37 31 C-35.35546875 29.30859375 -35.35546875 29.30859375 -33.1875 27.4375 C-32.47980469 26.81746094 -31.77210938 26.19742188 -31.04296875 25.55859375 C-29 24 -29 24 -26 23 C-26 22.34 -26 21.68 -26 21 C-24.5390625 19.4921875 -24.5390625 19.4921875 -22.625 17.875 C-21.99851562 17.33617187 -21.37203125 16.79734375 -20.7265625 16.2421875 C-19 15 -19 15 -17 15 C-17 14.34 -17 13.68 -17 13 C-15.5390625 11.4921875 -15.5390625 11.4921875 -13.625 9.875 C-12.99851562 9.33617187 -12.37203125 8.79734375 -11.7265625 8.2421875 C-10 7 -10 7 -8 7 C-8 6.34 -8 5.68 -8 5 C-2.52380952 0 -2.52380952 0 0 0 Z " fill="#7BA0E8" transform="translate(560,161)"/>
<path d="M0 0 C2.89027477 1.31092024 4.97081658 2.71646115 7.22114563 4.94699097 C7.83390854 5.54977875 8.44667145 6.15256653 9.07800293 6.77362061 C9.73844604 7.43339905 10.39888916 8.09317749 11.0793457 8.77294922 C11.78379318 9.46907318 12.48824066 10.16519714 13.21403503 10.88241577 C15.54009765 13.18438739 17.85843341 15.49394506 20.17578125 17.8046875 C21.78663987 19.40658262 23.39757741 21.00839837 25.0085907 22.61013794 C28.3822648 25.96732439 31.75152155 29.32887844 35.1184082 32.69287109 C39.44243906 37.0115034 43.78241014 41.31373137 48.12647724 45.61219597 C51.45733937 48.91339053 54.77696574 52.22570738 58.09352684 55.54126358 C59.68951354 57.13303132 61.28964099 58.72065814 62.89388466 60.30410385 C65.13040107 62.51390788 67.35072976 64.73880052 69.56762695 66.96826172 C70.23819122 67.6239917 70.90875549 68.27972168 71.59963989 68.95532227 C72.49763557 69.86796341 72.49763557 69.86796341 73.41377258 70.79904175 C73.94045186 71.3237097 74.46713114 71.84837765 75.00977039 72.38894463 C76 74 76 74 75.83009624 76.02476692 C74.41713826 79.3869329 71.55800722 81.50936162 68.875 83.875 C68.28549561 84.40512695 67.69599121 84.93525391 67.08862305 85.48144531 C65.39949699 86.99581814 63.70046343 88.49838743 62 90 C61.22527344 90.69867187 60.45054687 91.39734375 59.65234375 92.1171875 C55.27721292 96 55.27721292 96 53 96 C53 96.66 53 97.32 53 98 C51.5390625 99.5078125 51.5390625 99.5078125 49.625 101.125 C48.99851562 101.66382813 48.37203125 102.20265625 47.7265625 102.7578125 C46 104 46 104 44 104 C44 104.66 44 105.32 44 106 C42.5390625 107.5078125 42.5390625 107.5078125 40.625 109.125 C39.99851562 109.66382813 39.37203125 110.20265625 38.7265625 110.7578125 C37 112 37 112 35 112 C35 112.66 35 113.32 35 114 C33.28048026 115.53851766 31.49812503 117.00731759 29.6875 118.4375 C25.83532998 121.45235569 25.83532998 121.45235569 22.26953125 124.78515625 C21 126 21 126 19 126 C19 126.66 19 127.32 19 128 C17.3214487 129.49629179 15.58041102 130.92292661 13.8125 132.3125 C10.7833166 134.70097259 7.96472235 137.0359822 5.26171875 139.79296875 C3 142 3 142 1 142 C1 142.66 1 143.32 1 144 C-0.42578125 145.5078125 -0.42578125 145.5078125 -2.3125 147.125 C-2.92738281 147.66382813 -3.54226563 148.20265625 -4.17578125 148.7578125 C-6 150 -6 150 -9 150 C-8.38496183 132.0203378 -7.48946453 114.07038115 -6.40625 96.11328125 C-6.25297632 93.5440513 -6.09986276 90.9748118 -5.94689941 88.40556335 C-5.62932195 83.08203339 -5.30983033 77.75862335 -4.98876953 72.43530273 C-4.61892876 66.30257257 -4.25325687 60.16960372 -3.88961458 54.03650314 C-3.53610842 48.07652198 -3.17934328 42.11673913 -2.82121277 36.15703392 C-2.67044958 33.64252021 -2.52054718 31.12795472 -2.37153625 28.61333656 C-2.16390083 25.11615418 -1.95255614 21.61921502 -1.74023438 18.12231445 C-1.67994553 17.09429214 -1.61965668 16.06626984 -1.55754089 15.00709534 C-1.246795 9.95462195 -0.80849721 4.99788635 0 0 Z " fill="#799EE5" transform="translate(323,436)"/>
<path d="M0 0 C0.99 0 1.98 0 3 0 C3 0.66 3 1.32 3 2 C3.66 2 4.32 2 5 2 C8 5.46153846 8 5.46153846 8 8 C8.66 8 9.32 8 10 8 C13 11.46153846 13 11.46153846 13 14 C13.66 14 14.32 14 15 14 C15 14.66 15 15.32 15 16 C15.66 16 16.32 16 17 16 C17 16.66 17 17.32 17 18 C17.66 18 18.32 18 19 18 C22 21.46153846 22 21.46153846 22 24 C22.66 24 23.32 24 24 24 C27 27.46153846 27 27.46153846 27 30 C27.66 30 28.32 30 29 30 C29 30.66 29 31.32 29 32 C29.66 32 30.32 32 31 32 C34 35.46153846 34 35.46153846 34 38 C34.66 38 35.32 38 36 38 C41 43.47619048 41 43.47619048 41 46 C41.66 46 42.32 46 43 46 C43 46.66 43 47.32 43 48 C43.66 48 44.32 48 45 48 C48 51.46153846 48 51.46153846 48 54 C48.66 54 49.32 54 50 54 C53 57.46153846 53 57.46153846 53 60 C53.66 60 54.32 60 55 60 C55 60.66 55 61.32 55 62 C55.66 62 56.32 62 57 62 C57 62.66 57 63.32 57 64 C57.66 64 58.32 64 59 64 C62 67.46153846 62 67.46153846 62 70 C62.66 70 63.32 70 64 70 C65.32 72.31 66.64 74.62 68 77 C67 78 67 78 63.6875 78.125 C60 78 60 78 58.1953125 77.50976562 C55.1827628 76.81023229 52.27801605 76.79609518 49.1875 76.71875 C48.53676514 76.70034058 47.88603027 76.68193115 47.21557617 76.66296387 C45.14380551 76.60445541 43.07195516 76.55153398 41 76.5 C38.27066818 76.43211564 35.54158229 76.3584563 32.8125 76.28125 C31.60207031 76.25095703 30.39164063 76.22066406 29.14453125 76.18945312 C26.54571569 76.03287852 24.489599 75.64432626 22 75 C20.04946236 74.85431597 18.09534935 74.75340533 16.140625 74.68359375 C15.02558594 74.64169922 13.91054688 74.59980469 12.76171875 74.55664062 C11.60285156 74.51732422 10.44398438 74.47800781 9.25 74.4375 C7.48849609 74.37272461 7.48849609 74.37272461 5.69140625 74.30664062 C2.79438549 74.20065206 -0.10271935 74.09858362 -3 74 C-4.67631005 71.08745947 -5.22656793 69.20007496 -4.9675293 65.85595703 C-4.91054367 65.04635529 -4.85355804 64.23675354 -4.79484558 63.40261841 C-4.72203873 62.52983246 -4.64923187 61.65704651 -4.57421875 60.7578125 C-4.47364922 59.37962845 -4.47364922 59.37962845 -4.37104797 57.97360229 C-4.15386928 55.02315447 -3.921396 52.07416543 -3.6875 49.125 C-3.39492441 45.294625 -3.10894443 41.46377806 -2.82421875 37.6328125 C-2.75218231 36.68271301 -2.68014587 35.73261353 -2.60592651 34.75372314 C-2.02115068 26.84126463 -1.63849441 18.92669883 -1.35758972 10.99783325 C-1.32442154 10.1372934 -1.29125336 9.27675354 -1.25708008 8.39013672 C-1.23116287 7.63658905 -1.20524567 6.88304138 -1.17854309 6.10665894 C-0.99820117 3.97877531 -0.57578755 2.05315511 0 0 Z " fill="#1950B5" transform="translate(571,162)"/>
<path d="M0 0 C1.57148499 0.08051107 3.139504 0.22979477 4.703125 0.40625 C12.56383031 1.19892617 20.43072958 1.37254612 28.32421875 1.60546875 C37.29870507 1.89822477 37.29870507 1.89822477 41.4453125 2.5 C48.55235639 3.49967211 55.78209121 3.40780538 62.94921875 3.60546875 C64.16480469 3.64285156 65.38039063 3.68023437 66.6328125 3.71875 C67.73512207 3.74904297 68.83743164 3.77933594 69.97314453 3.81054688 C73 4 73 4 75.49780273 4.5 C78.49103157 5.09812008 81.35132261 5.19788513 84.40234375 5.28125 C85.62244141 5.31863281 86.84253906 5.35601562 88.09960938 5.39453125 C89.36611328 5.42933594 90.63261719 5.46414062 91.9375 5.5 C94.44672075 5.56916688 96.9558448 5.64195742 99.46484375 5.71875 C100.574646 5.74904297 101.68444824 5.77933594 102.82788086 5.81054688 C105.94748826 5.99686376 108.92971401 6.42846113 112 7 C112 7.33 112 7.66 112 8 C107.23112363 8.02475064 102.46228479 8.04288403 97.69335938 8.05493164 C96.07160796 8.05995505 94.44986105 8.06677494 92.828125 8.07543945 C90.49478031 8.08759229 88.1614956 8.09324828 85.828125 8.09765625 C85.10506165 8.10281754 84.38199829 8.10797882 83.63702393 8.11329651 C80.24011754 8.1136736 77.26747191 7.88808428 74 7 C72.02320797 6.86515554 70.0430504 6.77628144 68.0625 6.71875 C66.92039062 6.68136719 65.77828125 6.64398438 64.6015625 6.60546875 C62.81878906 6.55326172 62.81878906 6.55326172 61 6.5 C58.64571362 6.43105669 56.29153498 6.35830081 53.9375 6.28125 C52.89464844 6.25095703 51.85179687 6.22066406 50.77734375 6.18945312 C48 6 48 6 46.11425781 5.49780273 C42.85454507 4.73030224 39.56692075 4.80223138 36.234375 4.75390625 C34.68879671 4.72095403 33.14322394 4.68774262 31.59765625 4.65429688 C29.17761172 4.60705142 26.75758727 4.56262361 24.33740234 4.52319336 C21.99032462 4.48312364 19.6436974 4.43165771 17.296875 4.37890625 C16.22925934 4.36628502 16.22925934 4.36628502 15.14007568 4.35340881 C10.16493848 4.23292735 5.79411933 3.34443781 1 2 C0.67 2.66 0.34 3.32 0 4 C-0.33 3.01 -0.66 2.02 -1 1 C-0.67 0.67 -0.34 0.34 0 0 Z " fill="#123B86" transform="translate(14,128)"/>
<path d="M0 0 C1.9999203 -0.02743793 3.99995477 -0.04659055 6 -0.0625 C7.670625 -0.07990234 7.670625 -0.07990234 9.375 -0.09765625 C12.50531845 -0.01332655 15.48395336 0.32701061 18.58105469 0.74829102 C25.31910816 1.44943485 32.14233965 1.41689182 38.91015625 1.60546875 C40.72193359 1.66154297 40.72193359 1.66154297 42.5703125 1.71875 C43.66102051 1.74904297 44.75172852 1.77933594 45.87548828 1.81054688 C48.977493 1.9986353 51.94652317 2.43303231 55 3 C55 3.33 55 3.66 55 4 C49.84050889 4.04960315 44.681158 4.08581559 39.52148438 4.10986328 C37.76787903 4.11989313 36.0142903 4.13352029 34.26074219 4.15087891 C31.73368215 4.1752603 29.2068441 4.1865134 26.6796875 4.1953125 C25.51214432 4.21079636 25.51214432 4.21079636 24.3210144 4.22659302 C19.79174969 4.22751722 16.28530404 3.63414607 12 2 C9.88234672 1.72692062 7.75545889 1.51703059 5.625 1.375 C4.56539062 1.30023438 3.50578125 1.22546875 2.4140625 1.1484375 C1.61742187 1.09945312 0.82078125 1.05046875 0 1 C0 0.67 0 0.34 0 0 Z " fill="#123A84" transform="translate(139,136)"/>
<path d="M0 0 C10.52824159 -0.09548426 21.04805628 -0.18321377 31.5625 0.4375 C32.24497803 0.47673584 32.92745605 0.51597168 33.63061523 0.55639648 C37.16053543 0.78834105 40.5506298 1.21214001 44 2 C44.33 1.34 44.66 0.68 45 0 C45.495 1.485 45.495 1.485 46 3 C45 4 45 4 41.6875 4.125 C38 4 38 4 36.1953125 3.50756836 C33.18023276 2.81046529 30.28020076 2.8150439 27.1875 2.75390625 C25.85155562 2.7209811 24.51561828 2.68776924 23.1796875 2.65429688 C21.08630985 2.60685419 18.99296343 2.56236833 16.89941406 2.52319336 C14.87015565 2.48339931 12.84145085 2.43189397 10.8125 2.37890625 C8.99685547 2.34132202 8.99685547 2.34132202 7.14453125 2.30297852 C4.19628597 2.01891234 2.48707035 1.5424619 0 0 Z " fill="#103983" transform="translate(593,236)"/>
<path d="M0 0 C0.33 0 0.66 0 1 0 C1 7.59 1 15.18 1 23 C1.99 23.33 2.98 23.66 4 24 C3.34 24.66 2.68 25.32 2 26 C1.01 26 0.02 26 -1 26 C-0.67 17.42 -0.34 8.84 0 0 Z " fill="#3E588B" transform="translate(315,560)"/>
<path d="M0 0 C0.33 0 0.66 0 1 0 C1.10920422 7.74136601 0.97159933 15.31395526 0 23 C-3.16115776 21.63016497 -3.9927092 21.0109362 -6 18 C-4.68 18 -3.36 18 -2 18 C-1.34 12.06 -0.68 6.12 0 0 Z " fill="#4B689F" transform="translate(547,356)"/>
<path d="M0 0 C7.41713814 0.17790184 14.74295318 1.55420537 22 3 C22 3.33 22 3.66 22 4 C14.64657821 4.20177072 8.05112439 4.21211746 1 2 C0.67 2.66 0.34 3.32 0 4 C-0.33 3.01 -0.66 2.02 -1 1 C-0.67 0.67 -0.34 0.34 0 0 Z " fill="#1A4FAE" transform="translate(14,128)"/>
<path d="M0 0 C0 4.95 0 9.9 0 15 C-0.33 15 -0.66 15 -1 15 C-1.33 11.04 -1.66 7.08 -2 3 C-2.99 4.32 -3.98 5.64 -5 7 C-5.99 7 -6.98 7 -8 7 C-8 6.34 -8 5.68 -8 5 C-2.52380952 0 -2.52380952 0 0 0 Z " fill="#3F5B92" transform="translate(560,161)"/>
<path d="M0 0 C0.66 0.99 1.32 1.98 2 3 C1 4 1 4 -2.3125 4.1875 C-6 4 -6 4 -10 2 C-6.7 2 -3.4 2 0 2 C0 1.34 0 0.68 0 0 Z " fill="#0F2F68" transform="translate(637,236)"/>
<path d="M0 0 C1.85772162 0.08984301 3.71247985 0.24611861 5.5625 0.4375 C7.08037109 0.59025391 7.08037109 0.59025391 8.62890625 0.74609375 C9.80259766 0.87177734 9.80259766 0.87177734 11 1 C11 1.33 11 1.66 11 2 C7.7 2 4.4 2 1 2 C0.67 2.66 0.34 3.32 0 4 C-0.33 3.01 -0.66 2.02 -1 1 C-0.67 0.67 -0.34 0.34 0 0 Z " fill="#102E66" transform="translate(14,128)"/>
<path d="M0 0 C0.66 0.33 1.32 0.66 2 1 C1.07347299 2.17539996 0.13336613 3.34010577 -0.8125 4.5 C-1.33457031 5.1496875 -1.85664063 5.799375 -2.39453125 6.46875 C-4 8 -4 8 -7 8 C-7 7.34 -7 6.68 -7 6 C-5.46875 4.4921875 -5.46875 4.4921875 -3.5 2.875 C-2.8503125 2.33617187 -2.200625 1.79734375 -1.53125 1.2421875 C-1.0259375 0.83226562 -0.520625 0.42234375 0 0 Z " fill="#436196" transform="translate(485,226)"/>
<path d="M0 0 C0.66 0.33 1.32 0.66 2 1 C1.07347299 2.17539996 0.13336613 3.34010577 -0.8125 4.5 C-1.33457031 5.1496875 -1.85664063 5.799375 -2.39453125 6.46875 C-4 8 -4 8 -7 8 C-7 7.34 -7 6.68 -7 6 C-5.46875 4.4921875 -5.46875 4.4921875 -3.5 2.875 C-2.8503125 2.33617187 -2.200625 1.79734375 -1.53125 1.2421875 C-1.0259375 0.83226562 -0.520625 0.42234375 0 0 Z " fill="#47649A" transform="translate(503,210)"/>
<path d="M0 0 C0.66 0.33 1.32 0.66 2 1 C1.07347299 2.17539996 0.13336613 3.34010577 -0.8125 4.5 C-1.33457031 5.1496875 -1.85664063 5.799375 -2.39453125 6.46875 C-4 8 -4 8 -7 8 C-7 7.34 -7 6.68 -7 6 C-5.46875 4.4921875 -5.46875 4.4921875 -3.5 2.875 C-2.8503125 2.33617187 -2.200625 1.79734375 -1.53125 1.2421875 C-1.0259375 0.83226562 -0.520625 0.42234375 0 0 Z " fill="#48669D" transform="translate(512,202)"/>
<path d="M0 0 C0.66 0.33 1.32 0.66 2 1 C1.07347299 2.17539996 0.13336613 3.34010577 -0.8125 4.5 C-1.33457031 5.1496875 -1.85664062 5.799375 -2.39453125 6.46875 C-4 8 -4 8 -7 8 C-7 7.34 -7 6.68 -7 6 C-5.46875 4.4921875 -5.46875 4.4921875 -3.5 2.875 C-2.8503125 2.33617187 -2.200625 1.79734375 -1.53125 1.2421875 C-1.0259375 0.83226562 -0.520625 0.42234375 0 0 Z " fill="#4A679D" transform="translate(521,194)"/>
<path d="M0 0 C0.66 0.33 1.32 0.66 2 1 C1.07347299 2.17539996 0.13336613 3.34010577 -0.8125 4.5 C-1.33457031 5.1496875 -1.85664062 5.799375 -2.39453125 6.46875 C-4 8 -4 8 -7 8 C-7 7.34 -7 6.68 -7 6 C-5.46875 4.4921875 -5.46875 4.4921875 -3.5 2.875 C-2.8503125 2.33617187 -2.200625 1.79734375 -1.53125 1.2421875 C-1.0259375 0.83226562 -0.520625 0.42234375 0 0 Z " fill="#456399" transform="translate(541,176)"/>
<path d="M0 0 C0.66 0.33 1.32 0.66 2 1 C1.07347299 2.17539996 0.13336613 3.34010577 -0.8125 4.5 C-1.33457031 5.1496875 -1.85664062 5.799375 -2.39453125 6.46875 C-4 8 -4 8 -7 8 C-7 7.34 -7 6.68 -7 6 C-5.46875 4.4921875 -5.46875 4.4921875 -3.5 2.875 C-2.8503125 2.33617187 -2.200625 1.79734375 -1.53125 1.2421875 C-1.0259375 0.83226562 -0.520625 0.42234375 0 0 Z " fill="#47639B" transform="translate(550,168)"/>
</svg>
